<svg width="654" height="248" viewBox="0 0 654 248" fill="none" xmlns="http://www.w3.org/2000/svg">
<g clip-path="url(#clip0_1_33)">
<path d="M272.428 210.593L218.954 222.656C218.954 222.656 208.05 221.415 218.39 206.191C219.319 204.819 220.421 203.345 221.716 201.743L249.429 188.142L249.172 186.313L243.271 144.701L240.99 128.595L258.383 112.425L261.704 109.336L305.848 150.169L305.533 150.75L287.079 184.105L272.428 210.593Z" fill="#FFB7B7"/>
<path d="M252.656 198.466L199.182 210.529C198.379 210.438 197.604 210.177 196.91 209.765C196.215 209.353 195.615 208.798 195.151 208.137C194.686 207.475 194.367 206.723 194.215 205.93C194.063 205.136 194.08 204.32 194.267 203.534C194.526 201.978 195.013 200.47 195.713 199.057C197.411 195.675 199.503 192.506 201.944 189.615L229.657 176.014L226.259 152.049L224.566 140.097L223.471 132.371L221.218 116.468L241.932 97.2088L264.492 118.071L286.076 138.042L283.163 143.299L279.69 149.583L263.023 179.727L259.627 185.867L252.656 198.466Z" fill="#FFB7B7"/>
<path d="M345.624 190.042C345.624 190.042 325.587 188.708 318.093 175.153C315.721 170.668 314.807 165.555 315.478 160.526L307.311 144.382L295.688 121.38L266.039 116.699L264.492 118.071L242.993 137.172L236.416 143.016L226.259 152.049L177.002 195.812C175.041 199.306 172.521 202.455 169.542 205.135C166.805 207.675 163.792 209.902 160.561 211.775C151.162 217.229 137.113 221.468 116.91 219.242L10.4088 247.587L0 176.161L89.3275 146.791L220.331 61.0991L308.767 83.731L349.776 141.961L345.624 190.042Z" fill="#FFB7B7"/>
<path d="M648.447 0H275.487C274.054 0.00160396 272.681 0.571607 271.667 1.58493C270.654 2.59825 270.084 3.97216 270.082 5.40521V226.246C270.084 227.679 270.654 229.053 271.667 230.067C272.68 231.08 274.054 231.65 275.487 231.651H648.447C649.88 231.65 651.254 231.08 652.267 230.067C653.28 229.053 653.85 227.679 653.852 226.246V5.40518C653.85 3.97215 653.28 2.5983 652.267 1.58499C651.254 0.571687 649.88 0.00166734 648.447 0Z" fill="white"/>
<path d="M648.447 0H275.487C274.054 0.00160396 272.681 0.571607 271.667 1.58493C270.654 2.59825 270.084 3.97216 270.082 5.40521V226.246C270.084 227.679 270.654 229.053 271.667 230.067C272.68 231.08 274.054 231.65 275.487 231.651H648.447C649.88 231.65 651.254 231.08 652.267 230.067C653.28 229.053 653.85 227.679 653.852 226.246V5.40518C653.85 3.97215 653.28 2.5983 652.267 1.58499C651.254 0.571687 649.88 0.00166734 648.447 0ZM652.308 226.246C652.307 227.27 651.9 228.252 651.176 228.976C650.452 229.7 649.471 230.107 648.447 230.107H275.487C274.464 230.107 273.482 229.7 272.758 228.976C272.034 228.252 271.627 227.27 271.627 226.246V5.40518C271.627 4.38135 272.034 3.39958 272.758 2.67563C273.482 1.95167 274.464 1.54478 275.487 1.54434H648.447C649.471 1.54478 650.452 1.95167 651.176 2.67563C651.9 3.39958 652.307 4.38135 652.308 5.40518V226.246Z" fill="#3F3D56"/>
<path d="M311.777 30.1164C309.944 30.1164 308.153 29.573 306.629 28.5548C305.105 27.5367 303.917 26.0895 303.216 24.3963C302.515 22.7032 302.331 20.8401 302.689 19.0426C303.046 17.2452 303.929 15.5942 305.225 14.2983C306.521 13.0024 308.172 12.1199 309.969 11.7624C311.767 11.4048 313.63 11.5883 315.323 12.2897C317.016 12.991 318.463 14.1786 319.481 15.7024C320.499 17.2262 321.043 19.0177 321.043 20.8504C321.043 23.3079 320.067 25.6648 318.329 27.4025C316.591 29.1402 314.234 30.1164 311.777 30.1164ZM311.777 13.1286C310.25 13.1286 308.757 13.5815 307.487 14.43C306.217 15.2785 305.227 16.4844 304.643 17.8954C304.058 19.3064 303.905 20.8589 304.203 22.3568C304.501 23.8547 305.237 25.2306 306.317 26.3105C307.397 27.3904 308.772 28.1258 310.27 28.4237C311.768 28.7217 313.321 28.5688 314.732 27.9843C316.143 27.3999 317.349 26.4102 318.197 25.1403C319.046 23.8705 319.498 22.3776 319.498 20.8504C319.498 19.8364 319.299 18.8322 318.911 17.8954C318.523 16.9586 317.954 16.1073 317.237 15.3903C316.52 14.6733 315.669 14.1045 314.732 13.7164C313.795 13.3284 312.791 13.1286 311.777 13.1286Z" fill="#6C63FF"/>
<path d="M297.374 20.8504C297.374 19.0828 297.926 17.3594 298.952 15.9201C299.978 14.4809 301.427 13.3975 303.098 12.8209C301.819 12.3795 300.452 12.2502 299.113 12.4438C297.774 12.6374 296.5 13.1483 295.398 13.9339C294.296 14.7195 293.397 15.757 292.778 16.9601C292.158 18.1632 291.834 19.497 291.834 20.8504C291.834 22.2037 292.158 23.5375 292.778 24.7406C293.397 25.9437 294.296 26.9812 295.398 27.7668C296.5 28.5524 297.774 29.0633 299.113 29.2569C300.452 29.4505 301.819 29.3212 303.098 28.8798C301.427 28.3032 299.978 27.2198 298.952 25.7806C297.926 24.3413 297.374 22.6179 297.374 20.8504Z" fill="#6C63FF"/>
<path d="M349.338 130.327C347.496 130.325 345.729 129.592 344.426 128.29C343.123 126.987 342.391 125.22 342.389 123.378V102.529C342.391 100.687 343.124 98.922 344.427 97.6205C345.73 96.319 347.496 95.588 349.338 95.588C351.18 95.588 352.946 96.319 354.249 97.6205C355.552 98.922 356.285 100.687 356.288 102.529V123.378C356.285 125.22 355.553 126.987 354.25 128.29C352.947 129.592 351.181 130.325 349.338 130.327Z" fill="#6C63FF"/>
<path d="M367.87 130.327C366.028 130.325 364.261 129.592 362.958 128.29C361.656 126.987 360.923 125.22 360.921 123.378V102.529C360.923 100.687 361.656 98.922 362.959 97.6205C364.262 96.319 366.028 95.588 367.87 95.588C369.712 95.588 371.478 96.319 372.781 97.6205C374.084 98.922 374.817 100.687 374.82 102.529V123.378C374.818 125.22 374.085 126.987 372.782 128.29C371.479 129.592 369.713 130.325 367.87 130.327Z" fill="#6C63FF"/>
<path d="M386.402 130.327C384.56 130.325 382.793 129.592 381.491 128.29C380.188 126.987 379.455 125.22 379.453 123.378V102.529C379.455 100.687 380.188 98.922 381.491 97.6205C382.794 96.319 384.561 95.588 386.402 95.588C388.244 95.588 390.01 96.319 391.313 97.6205C392.616 98.922 393.35 100.687 393.352 102.529V123.378C393.35 125.22 392.617 126.987 391.314 128.29C390.011 129.592 388.245 130.325 386.402 130.327Z" fill="#6C63FF"/>
<path d="M414.973 130.327C413.13 130.325 411.364 129.592 410.061 128.29C408.758 126.987 408.025 125.22 408.023 123.378V102.529C408.025 100.687 408.758 98.922 410.062 97.6205C411.365 96.319 413.131 95.588 414.973 95.588C416.814 95.588 418.581 96.319 419.884 97.6205C421.187 98.922 421.92 100.687 421.922 102.529V123.378C421.92 125.22 421.187 126.987 419.884 128.29C418.582 129.592 416.815 130.325 414.973 130.327Z" fill="#6C63FF"/>
<path d="M433.505 130.327C431.662 130.325 429.896 129.592 428.593 128.29C427.29 126.987 426.557 125.22 426.555 123.378V102.529C426.557 100.687 427.291 98.922 428.594 97.6205C429.897 96.319 431.663 95.588 433.505 95.588C435.346 95.588 437.113 96.319 438.416 97.6205C439.719 98.922 440.452 100.687 440.454 102.529V123.378C440.452 125.22 439.719 126.987 438.417 128.29C437.114 129.592 435.347 130.325 433.505 130.327Z" fill="#6C63FF"/>
<path d="M452.037 130.327C450.194 130.325 448.428 129.592 447.125 128.29C445.822 126.987 445.089 125.22 445.087 123.378V102.529C445.09 100.687 445.823 98.922 447.126 97.6205C448.429 96.319 450.195 95.588 452.037 95.588C453.879 95.588 455.645 96.319 456.948 97.6205C458.251 98.922 458.984 100.687 458.986 102.529V123.378C458.984 125.22 458.251 126.987 456.949 128.29C455.646 129.592 453.879 130.325 452.037 130.327Z" fill="#6C63FF"/>
<path d="M480.607 130.327C478.765 130.325 476.998 129.592 475.695 128.29C474.393 126.987 473.66 125.22 473.658 123.378V102.529C473.66 100.687 474.393 98.922 475.696 97.6205C476.999 96.319 478.766 95.588 480.607 95.588C482.449 95.588 484.215 96.319 485.518 97.6205C486.821 98.922 487.555 100.687 487.557 102.529V123.378C487.555 125.22 486.822 126.987 485.519 128.29C484.216 129.592 482.45 130.325 480.607 130.327Z" fill="#6C63FF"/>
<path d="M499.139 130.327C497.297 130.325 495.53 129.592 494.228 128.29C492.925 126.987 492.192 125.22 492.19 123.378V102.529C492.192 100.687 492.925 98.922 494.228 97.6205C495.531 96.319 497.298 95.588 499.139 95.588C500.981 95.588 502.747 96.319 504.05 97.6205C505.354 98.922 506.087 100.687 506.089 102.529V123.378C506.087 125.22 505.354 126.987 504.051 128.29C502.748 129.592 500.982 130.325 499.139 130.327Z" fill="#6C63FF"/>
<path d="M517.671 130.327C515.829 130.325 514.063 129.592 512.76 128.29C511.457 126.987 510.724 125.22 510.722 123.378V102.529C510.724 100.687 511.457 98.922 512.76 97.6205C514.063 96.319 515.83 95.588 517.671 95.588C519.513 95.588 521.28 96.319 522.583 97.6205C523.886 98.922 524.619 100.687 524.621 102.529V123.378C524.619 125.22 523.886 126.987 522.583 128.29C521.28 129.592 519.514 130.325 517.671 130.327Z" fill="#6C63FF"/>
<path d="M546.242 130.327C544.399 130.325 542.633 129.592 541.33 128.29C540.027 126.987 539.294 125.22 539.292 123.378V102.529C539.295 100.687 540.028 98.922 541.331 97.6205C542.634 96.319 544.4 95.588 546.242 95.588C548.084 95.588 549.85 96.319 551.153 97.6205C552.456 98.922 553.189 100.687 553.191 102.529V123.378C553.189 125.22 552.456 126.987 551.154 128.29C549.851 129.592 548.084 130.325 546.242 130.327Z" fill="#6C63FF"/>
<path d="M564.774 130.327C562.931 130.325 561.165 129.592 559.862 128.29C558.559 126.987 557.827 125.22 557.824 123.378V102.529C557.827 100.687 558.56 98.922 559.863 97.6205C561.166 96.319 562.932 95.588 564.774 95.588C566.616 95.588 568.382 96.319 569.685 97.6205C570.988 98.922 571.721 100.687 571.724 102.529V123.378C571.721 125.22 570.989 126.987 569.686 128.29C568.383 129.592 566.616 130.325 564.774 130.327Z" fill="#6C63FF"/>
<path d="M583.306 130.327C581.464 130.325 579.697 129.592 578.394 128.29C577.092 126.987 576.359 125.22 576.357 123.378V102.529C576.359 100.687 577.092 98.922 578.395 97.6205C579.698 96.319 581.464 95.588 583.306 95.588C585.148 95.588 586.914 96.319 588.217 97.6205C589.52 98.922 590.253 100.687 590.256 102.529V123.378C590.254 125.22 589.521 126.987 588.218 128.29C586.915 129.592 585.149 130.325 583.306 130.327Z" fill="#6C63FF"/>
<path d="M396.454 207.673H296.504C295.891 207.674 295.283 207.554 294.715 207.32C294.148 207.086 293.632 206.742 293.198 206.308C292.764 205.874 292.419 205.359 292.184 204.792C291.949 204.225 291.828 203.618 291.828 203.004C291.828 202.39 291.949 201.782 292.184 201.215C292.419 200.648 292.764 200.133 293.198 199.7C293.632 199.266 294.148 198.922 294.715 198.688C295.283 198.453 295.891 198.333 296.504 198.334H396.454C397.692 198.336 398.878 198.829 399.752 199.704C400.626 200.58 401.117 201.767 401.117 203.004C401.117 204.241 400.626 205.428 399.752 206.303C398.878 207.179 397.692 207.672 396.454 207.673Z" fill="#E6E6E6"/>
<path d="M364.409 187.597H328.549C327.311 187.597 326.123 187.105 325.248 186.229C324.372 185.354 323.88 184.166 323.88 182.927C323.88 181.689 324.372 180.501 325.248 179.625C326.123 178.75 327.311 178.258 328.549 178.258H364.409C365.648 178.258 366.836 178.75 367.711 179.625C368.587 180.501 369.079 181.689 369.079 182.927C369.079 184.166 368.587 185.354 367.711 186.229C366.836 187.105 365.648 187.597 364.409 187.597Z" fill="#E6E6E6"/>
<path d="M652.029 46.1606H271.349V47.705H652.029V46.1606Z" fill="#3F3D56"/>
<path opacity="0.15" d="M227.821 202.764L227.011 200.936L260.015 186.299L267.883 158.697L256.023 149.108L257.28 147.552L270.169 157.973L261.682 187.748L227.821 202.764Z" fill="black"/>
<path opacity="0.1" d="M195.713 199.057L187.037 203.282L169.542 205.135C166.805 207.675 163.792 209.902 160.561 211.775L145.219 211.266L119.307 210.455L206.907 135.76L224.566 140.098C224.566 140.098 194.895 200.8 195.713 199.057Z" fill="black"/>
<path d="M318.093 175.153C315.794 175.596 313.273 175.962 310.487 176.243C296.105 177.681 265.703 179.592 263.023 179.727C245.016 180.574 233.694 180.564 233.694 180.564L195.713 199.057L187.037 203.282L116.72 210.729L211.936 129.539L223.471 132.37L242.993 137.172L264.501 142.46L283.163 143.299L307.311 144.382L326.83 145.259C330.212 145.376 333.41 146.827 335.726 149.294C338.041 151.761 339.287 155.045 339.19 158.427C338.883 164.866 334.418 171.981 318.093 175.153Z" fill="#FFB7B7"/>
<path opacity="0.15" d="M325.495 170.258C325.184 170.163 317.851 167.856 315.524 161.401C313.959 157.061 315.061 151.983 318.797 146.308L320.467 147.407C317.1 152.522 316.068 156.998 317.401 160.71C319.379 166.221 326.014 168.325 326.081 168.345L325.495 170.258Z" fill="black"/>
<path opacity="0.15" d="M230.62 180.946L197.017 197.313L197.893 199.111L231.496 182.744L230.62 180.946Z" fill="black"/>
<path opacity="0.15" d="M218.073 134.541L265.672 115.768L266.406 117.629L225.273 133.852L260.231 140.382L259.863 142.348L218.073 134.541Z" fill="black"/>
<g filter="url(#filter0_d_1_33)">
<path d="M619.098 212.547H615.987C615.93 212.144 615.814 211.787 615.639 211.474C615.464 211.157 615.239 210.887 614.964 210.665C614.69 210.442 614.373 210.272 614.013 210.153C613.658 210.035 613.272 209.976 612.855 209.976C612.102 209.976 611.446 210.163 610.888 210.537C610.329 210.906 609.896 211.446 609.588 212.156C609.28 212.862 609.126 213.719 609.126 214.727C609.126 215.764 609.28 216.635 609.588 217.341C609.901 218.046 610.336 218.579 610.895 218.939C611.454 219.299 612.1 219.479 612.834 219.479C613.246 219.479 613.627 219.424 613.977 219.315C614.332 219.206 614.647 219.048 614.922 218.839C615.196 218.626 615.424 218.368 615.604 218.065C615.788 217.762 615.916 217.417 615.987 217.028L619.098 217.043C619.018 217.71 618.816 218.354 618.494 218.974C618.177 219.59 617.749 220.142 617.209 220.629C616.674 221.112 616.035 221.496 615.291 221.78C614.553 222.059 613.717 222.199 612.784 222.199C611.487 222.199 610.327 221.905 609.304 221.318C608.286 220.731 607.481 219.881 606.889 218.768C606.302 217.656 606.009 216.309 606.009 214.727C606.009 213.141 606.307 211.792 606.903 210.679C607.5 209.566 608.31 208.719 609.332 208.136C610.355 207.549 611.506 207.256 612.784 207.256C613.627 207.256 614.408 207.374 615.128 207.611C615.852 207.848 616.494 208.193 617.053 208.648C617.611 209.098 618.066 209.649 618.416 210.303C618.771 210.956 618.999 211.704 619.098 212.547ZM623.931 207.455L627.447 218.506H627.582L631.104 207.455H634.513L629.499 222H625.536L620.515 207.455H623.931ZM648.278 212.547H645.167C645.11 212.144 644.994 211.787 644.819 211.474C644.644 211.157 644.419 210.887 644.144 210.665C643.87 210.442 643.552 210.272 643.192 210.153C642.837 210.035 642.451 209.976 642.035 209.976C641.282 209.976 640.626 210.163 640.067 210.537C639.509 210.906 639.076 211.446 638.768 212.156C638.46 212.862 638.306 213.719 638.306 214.727C638.306 215.764 638.46 216.635 638.768 217.341C639.08 218.046 639.516 218.579 640.075 218.939C640.633 219.299 641.28 219.479 642.013 219.479C642.425 219.479 642.807 219.424 643.157 219.315C643.512 219.206 643.827 219.048 644.102 218.839C644.376 218.626 644.603 218.368 644.783 218.065C644.968 217.762 645.096 217.417 645.167 217.028L648.278 217.043C648.197 217.71 647.996 218.354 647.674 218.974C647.357 219.59 646.928 220.142 646.388 220.629C645.853 221.112 645.214 221.496 644.471 221.78C643.732 222.059 642.897 222.199 641.964 222.199C640.666 222.199 639.506 221.905 638.484 221.318C637.466 220.731 636.661 219.881 636.069 218.768C635.482 217.656 635.188 216.309 635.188 214.727C635.188 213.141 635.487 211.792 636.083 210.679C636.68 209.566 637.489 208.719 638.512 208.136C639.535 207.549 640.685 207.256 641.964 207.256C642.807 207.256 643.588 207.374 644.308 207.611C645.032 207.848 645.674 208.193 646.232 208.648C646.791 209.098 647.246 209.649 647.596 210.303C647.951 210.956 648.178 211.704 648.278 212.547Z" fill="#6C63FF"/>
</g>
<g filter="url(#filter1_d_1_33)">
<path d="M583.074 19.0909V21.3636H576.341V19.0909H583.074ZM577.882 30V18.3026C577.882 17.5118 578.036 16.8561 578.344 16.3352C578.656 15.8144 579.082 15.4238 579.622 15.1634C580.162 14.9029 580.775 14.7727 581.462 14.7727C581.926 14.7727 582.349 14.8082 582.733 14.8793C583.121 14.9503 583.41 15.0142 583.599 15.071L583.06 17.3438C582.941 17.3059 582.795 17.2704 582.619 17.2372C582.449 17.2041 582.274 17.1875 582.094 17.1875C581.649 17.1875 581.339 17.2917 581.163 17.5C580.988 17.7036 580.901 17.9901 580.901 18.3594V30H577.882ZM587.642 30.206C586.946 30.206 586.326 30.0852 585.782 29.8438C585.237 29.5975 584.806 29.2353 584.489 28.7571C584.176 28.2741 584.02 27.6728 584.02 26.9531C584.02 26.3471 584.132 25.8381 584.354 25.4261C584.577 25.0142 584.88 24.6828 585.263 24.4318C585.647 24.1809 586.082 23.9915 586.57 23.8636C587.062 23.7358 587.578 23.6458 588.118 23.5938C588.753 23.5275 589.264 23.4659 589.652 23.4091C590.041 23.3475 590.322 23.2576 590.498 23.1392C590.673 23.0208 590.76 22.8456 590.76 22.6136V22.571C590.76 22.1212 590.618 21.7732 590.334 21.527C590.055 21.2808 589.657 21.1577 589.141 21.1577C588.596 21.1577 588.163 21.2784 587.841 21.5199C587.519 21.7566 587.306 22.0549 587.202 22.4148L584.404 22.1875C584.546 21.5246 584.825 20.9517 585.242 20.4688C585.658 19.9811 586.196 19.607 586.854 19.3466C587.517 19.0814 588.284 18.9489 589.155 18.9489C589.761 18.9489 590.341 19.0199 590.895 19.1619C591.454 19.304 591.949 19.5241 592.38 19.8224C592.815 20.1207 593.158 20.5043 593.409 20.973C593.66 21.437 593.786 21.9934 593.786 22.642V30H590.917V28.4872H590.831C590.656 28.8281 590.422 29.1288 590.128 29.3892C589.835 29.6449 589.482 29.8461 589.07 29.9929C588.658 30.1349 588.182 30.206 587.642 30.206ZM588.509 28.1179C588.954 28.1179 589.347 28.0303 589.688 27.8551C590.029 27.6752 590.296 27.4337 590.49 27.1307C590.685 26.8277 590.782 26.4844 590.782 26.1009V24.9432C590.687 25.0047 590.557 25.0616 590.391 25.1136C590.23 25.161 590.048 25.206 589.844 25.2486C589.641 25.2865 589.437 25.322 589.233 25.3551C589.03 25.3835 588.845 25.4096 588.679 25.4332C588.324 25.4853 588.014 25.5682 587.749 25.6818C587.484 25.7955 587.278 25.9493 587.131 26.1435C586.984 26.3329 586.911 26.5696 586.911 26.8537C586.911 27.2656 587.06 27.5805 587.358 27.7983C587.661 28.0114 588.045 28.1179 588.509 28.1179ZM596.133 30V19.0909H599.159V30H596.133ZM597.653 17.6847C597.203 17.6847 596.817 17.5355 596.495 17.2372C596.178 16.9342 596.02 16.572 596.02 16.1506C596.02 15.7339 596.178 15.3764 596.495 15.0781C596.817 14.7751 597.203 14.6236 597.653 14.6236C598.103 14.6236 598.486 14.7751 598.804 15.0781C599.126 15.3764 599.287 15.7339 599.287 16.1506C599.287 16.572 599.126 16.9342 598.804 17.2372C598.486 17.5355 598.103 17.6847 597.653 17.6847ZM604.608 15.4545V30H601.582V15.4545H604.608ZM614.027 25.3551V19.0909H617.053V30H614.148V28.0185H614.034C613.788 28.6577 613.379 29.1714 612.806 29.5597C612.238 29.9479 611.544 30.142 610.725 30.142C609.996 30.142 609.354 29.9763 608.8 29.6449C608.246 29.3134 607.813 28.8423 607.5 28.2315C607.193 27.6207 607.036 26.8892 607.032 26.0369V19.0909H610.057V25.4972C610.062 26.1411 610.235 26.6501 610.576 27.0241C610.917 27.3982 611.373 27.5852 611.946 27.5852C612.311 27.5852 612.652 27.5024 612.969 27.3366C613.286 27.1662 613.542 26.9152 613.736 26.5838C613.935 26.2524 614.032 25.8428 614.027 25.3551ZM619.473 30V19.0909H622.406V20.9943H622.52C622.719 20.3172 623.053 19.8059 623.521 19.4602C623.99 19.1098 624.53 18.9347 625.141 18.9347C625.292 18.9347 625.455 18.9441 625.631 18.9631C625.806 18.982 625.96 19.008 626.092 19.0412V21.7259C625.95 21.6832 625.754 21.6454 625.503 21.6122C625.252 21.5791 625.022 21.5625 624.814 21.5625C624.369 21.5625 623.971 21.6596 623.621 21.8537C623.275 22.0431 623 22.3082 622.797 22.6491C622.598 22.9901 622.499 23.383 622.499 23.8281V30H619.473ZM632.12 30.2131C630.998 30.2131 630.032 29.9858 629.223 29.5312C628.418 29.072 627.797 28.4233 627.362 27.5852C626.926 26.7424 626.708 25.7457 626.708 24.5952C626.708 23.473 626.926 22.4882 627.362 21.6406C627.797 20.7931 628.411 20.1326 629.201 19.6591C629.997 19.1856 630.93 18.9489 632 18.9489C632.719 18.9489 633.389 19.0649 634.01 19.2969C634.635 19.5241 635.179 19.8674 635.643 20.3267C636.112 20.786 636.476 21.3636 636.737 22.0597C636.997 22.7509 637.127 23.5606 637.127 24.4886V25.3196H627.916V23.4446H634.279C634.279 23.009 634.185 22.6231 633.995 22.2869C633.806 21.9508 633.543 21.688 633.207 21.4986C632.876 21.3045 632.49 21.2074 632.049 21.2074C631.59 21.2074 631.183 21.3139 630.828 21.527C630.477 21.7353 630.203 22.017 630.004 22.3722C629.805 22.7225 629.703 23.1132 629.699 23.544V25.3267C629.699 25.8665 629.798 26.3329 629.997 26.7259C630.2 27.1188 630.487 27.4219 630.856 27.6349C631.225 27.848 631.663 27.9545 632.17 27.9545C632.506 27.9545 632.814 27.9072 633.093 27.8125C633.373 27.7178 633.612 27.5758 633.811 27.3864C634.01 27.197 634.161 26.965 634.265 26.6903L637.064 26.875C636.922 27.5473 636.63 28.1345 636.19 28.6364C635.754 29.1335 635.191 29.5218 634.5 29.8011C633.813 30.0758 633.02 30.2131 632.12 30.2131Z" fill="#6C63FF"/>
</g>
<g filter="url(#filter2_d_1_33)">
<path d="M443.477 37.5455L472.81 87.1193H473.946L503.42 37.5455H538.151L493.761 110.273L539.145 183H503.776L473.946 133.355H472.81L442.98 183H407.753L453.278 110.273L408.605 37.5455H443.477Z" fill="#DF1010"/>
</g>
</g>
<defs>
<filter id="filter0_d_1_33" x="602.009" y="207.256" width="50.2692" height="22.9432" filterUnits="userSpaceOnUse" color-interpolation-filters="sRGB">
<feFlood flood-opacity="0" result="BackgroundImageFix"/>
<feColorMatrix in="SourceAlpha" type="matrix" values="0 0 0 0 0 0 0 0 0 0 0 0 0 0 0 0 0 0 127 0" result="hardAlpha"/>
<feOffset dy="4"/>
<feGaussianBlur stdDeviation="2"/>
<feComposite in2="hardAlpha" operator="out"/>
<feColorMatrix type="matrix" values="0 0 0 0 0 0 0 0 0 0 0 0 0 0 0 0 0 0 0.25 0"/>
<feBlend mode="normal" in2="BackgroundImageFix" result="effect1_dropShadow_1_33"/>
<feBlend mode="normal" in="SourceGraphic" in2="effect1_dropShadow_1_33" result="shape"/>
</filter>
<filter id="filter1_d_1_33" x="572.341" y="14.6236" width="68.7866" height="23.5895" filterUnits="userSpaceOnUse" color-interpolation-filters="sRGB">
<feFlood flood-opacity="0" result="BackgroundImageFix"/>
<feColorMatrix in="SourceAlpha" type="matrix" values="0 0 0 0 0 0 0 0 0 0 0 0 0 0 0 0 0 0 127 0" result="hardAlpha"/>
<feOffset dy="4"/>
<feGaussianBlur stdDeviation="2"/>
<feComposite in2="hardAlpha" operator="out"/>
<feColorMatrix type="matrix" values="0 0 0 0 0 0 0 0 0 0 0 0 0 0 0 0 0 0 0.25 0"/>
<feBlend mode="normal" in2="BackgroundImageFix" result="effect1_dropShadow_1_33"/>
<feBlend mode="normal" in="SourceGraphic" in2="effect1_dropShadow_1_33" result="shape"/>
</filter>
<filter id="filter2_d_1_33" x="403.753" y="37.5454" width="139.392" height="153.455" filterUnits="userSpaceOnUse" color-interpolation-filters="sRGB">
<feFlood flood-opacity="0" result="BackgroundImageFix"/>
<feColorMatrix in="SourceAlpha" type="matrix" values="0 0 0 0 0 0 0 0 0 0 0 0 0 0 0 0 0 0 127 0" result="hardAlpha"/>
<feOffset dy="4"/>
<feGaussianBlur stdDeviation="2"/>
<feComposite in2="hardAlpha" operator="out"/>
<feColorMatrix type="matrix" values="0 0 0 0 0 0 0 0 0 0 0 0 0 0 0 0 0 0 0.25 0"/>
<feBlend mode="normal" in2="BackgroundImageFix" result="effect1_dropShadow_1_33"/>
<feBlend mode="normal" in="SourceGraphic" in2="effect1_dropShadow_1_33" result="shape"/>
</filter>
<clipPath id="clip0_1_33">
<rect width="653.852" height="247.587" fill="white"/>
</clipPath>
</defs>
</svg>
