<svg width="654" height="248" viewBox="0 0 654 248" fill="none" xmlns="http://www.w3.org/2000/svg">
<g clip-path="url(#clip0_1_65)">
<path d="M272.428 210.593L218.954 222.656C218.954 222.656 208.05 221.415 218.39 206.191C219.319 204.819 220.421 203.345 221.716 201.743L249.429 188.142L249.172 186.313L243.271 144.701L240.99 128.595L258.383 112.425L261.704 109.336L305.848 150.169L305.533 150.75L287.079 184.105L272.428 210.593Z" fill="#FFB7B7"/>
<path d="M252.656 198.466L199.182 210.529C198.379 210.438 197.604 210.177 196.91 209.765C196.215 209.353 195.615 208.798 195.151 208.137C194.686 207.475 194.367 206.723 194.215 205.93C194.063 205.136 194.08 204.32 194.267 203.534C194.526 201.978 195.013 200.47 195.713 199.057C197.411 195.675 199.503 192.506 201.944 189.615L229.657 176.014L226.259 152.049L224.566 140.097L223.471 132.371L221.218 116.468L241.932 97.2088L264.492 118.071L286.076 138.042L283.163 143.299L279.69 149.583L263.023 179.727L259.627 185.867L252.656 198.466Z" fill="#FFB7B7"/>
<path d="M345.624 190.042C345.624 190.042 325.587 188.708 318.093 175.153C315.721 170.668 314.807 165.555 315.478 160.526L307.311 144.382L295.688 121.38L266.039 116.699L264.492 118.071L242.993 137.172L236.416 143.016L226.259 152.049L177.002 195.812C175.041 199.306 172.521 202.455 169.542 205.135C166.805 207.675 163.792 209.902 160.561 211.775C151.162 217.229 137.113 221.468 116.91 219.242L10.4088 247.587L0 176.161L89.3275 146.791L220.331 61.0991L308.767 83.731L349.776 141.961L345.624 190.042Z" fill="#FFB7B7"/>
<path d="M648.447 0H275.487C274.054 0.00160396 272.681 0.571607 271.667 1.58493C270.654 2.59825 270.084 3.97216 270.082 5.40521V226.246C270.084 227.679 270.654 229.053 271.667 230.067C272.68 231.08 274.054 231.65 275.487 231.651H648.447C649.88 231.65 651.254 231.08 652.267 230.067C653.28 229.053 653.85 227.679 653.852 226.246V5.40518C653.85 3.97215 653.28 2.5983 652.267 1.58499C651.254 0.571687 649.88 0.00166734 648.447 0Z" fill="white"/>
<path d="M648.447 0H275.487C274.054 0.00160396 272.681 0.571607 271.667 1.58493C270.654 2.59825 270.084 3.97216 270.082 5.40521V226.246C270.084 227.679 270.654 229.053 271.667 230.067C272.68 231.08 274.054 231.65 275.487 231.651H648.447C649.88 231.65 651.254 231.08 652.267 230.067C653.28 229.053 653.85 227.679 653.852 226.246V5.40518C653.85 3.97215 653.28 2.5983 652.267 1.58499C651.254 0.571687 649.88 0.00166734 648.447 0ZM652.308 226.246C652.307 227.27 651.9 228.252 651.176 228.976C650.452 229.7 649.471 230.107 648.447 230.107H275.487C274.464 230.107 273.482 229.7 272.758 228.976C272.034 228.252 271.627 227.27 271.627 226.246V5.40518C271.627 4.38135 272.034 3.39958 272.758 2.67563C273.482 1.95167 274.464 1.54478 275.487 1.54434H648.447C649.471 1.54478 650.452 1.95167 651.176 2.67563C651.9 3.39958 652.307 4.38135 652.308 5.40518V226.246Z" fill="#3F3D56"/>
<path d="M311.777 30.1164C309.944 30.1164 308.153 29.573 306.629 28.5548C305.105 27.5366 303.917 26.0895 303.216 24.3963C302.515 22.7032 302.331 20.8401 302.689 19.0426C303.046 17.2452 303.929 15.5941 305.225 14.2983C306.521 13.0024 308.172 12.1199 309.969 11.7623C311.767 11.4048 313.63 11.5883 315.323 12.2896C317.016 12.9909 318.463 14.1786 319.481 15.7024C320.499 17.2262 321.043 19.0177 321.043 20.8504C321.043 23.3079 320.067 25.6647 318.329 27.4024C316.591 29.1402 314.234 30.1164 311.777 30.1164ZM311.777 13.1286C310.25 13.1286 308.757 13.5815 307.487 14.43C306.217 15.2784 305.227 16.4844 304.643 17.8954C304.058 19.3063 303.905 20.8589 304.203 22.3568C304.501 23.8546 305.237 25.2305 306.317 26.3104C307.397 27.3903 308.772 28.1257 310.27 28.4237C311.768 28.7216 313.321 28.5687 314.732 27.9843C316.143 27.3999 317.349 26.4101 318.197 25.1403C319.046 23.8705 319.498 22.3776 319.498 20.8504C319.498 19.8363 319.299 18.8322 318.911 17.8954C318.523 16.9585 317.954 16.1073 317.237 15.3903C316.52 14.6732 315.669 14.1045 314.732 13.7164C313.795 13.3284 312.791 13.1286 311.777 13.1286Z" fill="#6C63FF"/>
<path d="M297.374 20.8503C297.374 19.0828 297.926 17.3594 298.952 15.9201C299.978 14.4808 301.427 13.3974 303.098 12.8208C301.819 12.3795 300.452 12.2502 299.113 12.4438C297.774 12.6374 296.5 13.1483 295.398 13.9339C294.296 14.7194 293.397 15.757 292.778 16.9601C292.158 18.1632 291.834 19.497 291.834 20.8503C291.834 22.2037 292.158 23.5375 292.778 24.7406C293.397 25.9436 294.296 26.9812 295.398 27.7668C296.5 28.5524 297.774 29.0633 299.113 29.2569C300.452 29.4505 301.819 29.3212 303.098 28.8798C301.427 28.3032 299.978 27.2198 298.952 25.7805C297.926 24.3413 297.374 22.6179 297.374 20.8503Z" fill="#6C63FF"/>
<path d="M349.338 130.327C347.496 130.325 345.729 129.592 344.426 128.29C343.123 126.987 342.391 125.22 342.389 123.378V102.529C342.391 100.687 343.124 98.922 344.427 97.6205C345.73 96.319 347.496 95.588 349.338 95.588C351.18 95.588 352.946 96.319 354.249 97.6205C355.552 98.922 356.285 100.687 356.288 102.529V123.378C356.285 125.22 355.553 126.987 354.25 128.29C352.947 129.592 351.181 130.325 349.338 130.327Z" fill="#6C63FF"/>
<path d="M367.87 130.327C366.028 130.325 364.261 129.592 362.958 128.29C361.656 126.987 360.923 125.22 360.921 123.378V102.529C360.923 100.687 361.656 98.922 362.959 97.6205C364.262 96.319 366.028 95.588 367.87 95.588C369.712 95.588 371.478 96.319 372.781 97.6205C374.084 98.922 374.817 100.687 374.82 102.529V123.378C374.818 125.22 374.085 126.987 372.782 128.29C371.479 129.592 369.713 130.325 367.87 130.327Z" fill="#6C63FF"/>
<path d="M386.402 130.327C384.56 130.325 382.793 129.592 381.491 128.29C380.188 126.987 379.455 125.22 379.453 123.378V102.529C379.455 100.687 380.188 98.922 381.491 97.6205C382.794 96.319 384.561 95.588 386.402 95.588C388.244 95.588 390.01 96.319 391.313 97.6205C392.616 98.922 393.35 100.687 393.352 102.529V123.378C393.35 125.22 392.617 126.987 391.314 128.29C390.011 129.592 388.245 130.325 386.402 130.327Z" fill="#6C63FF"/>
<path d="M414.973 130.327C413.13 130.325 411.364 129.592 410.061 128.29C408.758 126.987 408.025 125.22 408.023 123.378V102.529C408.025 100.687 408.758 98.922 410.062 97.6205C411.365 96.319 413.131 95.588 414.973 95.588C416.814 95.588 418.581 96.319 419.884 97.6205C421.187 98.922 421.92 100.687 421.922 102.529V123.378C421.92 125.22 421.187 126.987 419.884 128.29C418.582 129.592 416.815 130.325 414.973 130.327Z" fill="#6C63FF"/>
<path d="M433.505 130.327C431.662 130.325 429.896 129.592 428.593 128.29C427.29 126.987 426.557 125.22 426.555 123.378V102.529C426.557 100.687 427.291 98.922 428.594 97.6205C429.897 96.319 431.663 95.588 433.505 95.588C435.346 95.588 437.113 96.319 438.416 97.6205C439.719 98.922 440.452 100.687 440.454 102.529V123.378C440.452 125.22 439.719 126.987 438.417 128.29C437.114 129.592 435.347 130.325 433.505 130.327Z" fill="#6C63FF"/>
<path d="M452.037 130.327C450.194 130.325 448.428 129.592 447.125 128.29C445.822 126.987 445.089 125.22 445.087 123.378V102.529C445.09 100.687 445.823 98.922 447.126 97.6205C448.429 96.319 450.195 95.588 452.037 95.588C453.879 95.588 455.645 96.319 456.948 97.6205C458.251 98.922 458.984 100.687 458.986 102.529V123.378C458.984 125.22 458.251 126.987 456.949 128.29C455.646 129.592 453.879 130.325 452.037 130.327Z" fill="#6C63FF"/>
<path d="M480.607 130.327C478.765 130.325 476.998 129.592 475.695 128.29C474.393 126.987 473.66 125.22 473.658 123.378V102.529C473.66 100.687 474.393 98.922 475.696 97.6205C476.999 96.319 478.766 95.588 480.607 95.588C482.449 95.588 484.215 96.319 485.518 97.6205C486.821 98.922 487.555 100.687 487.557 102.529V123.378C487.555 125.22 486.822 126.987 485.519 128.29C484.216 129.592 482.45 130.325 480.607 130.327Z" fill="#6C63FF"/>
<path d="M499.139 130.327C497.297 130.325 495.53 129.592 494.228 128.29C492.925 126.987 492.192 125.22 492.19 123.378V102.529C492.192 100.687 492.925 98.922 494.228 97.6205C495.531 96.319 497.298 95.588 499.139 95.588C500.981 95.588 502.747 96.319 504.05 97.6205C505.354 98.922 506.087 100.687 506.089 102.529V123.378C506.087 125.22 505.354 126.987 504.051 128.29C502.748 129.592 500.982 130.325 499.139 130.327Z" fill="#6C63FF"/>
<path d="M517.671 130.327C515.829 130.325 514.063 129.592 512.76 128.29C511.457 126.987 510.724 125.22 510.722 123.378V102.529C510.724 100.687 511.457 98.922 512.76 97.6205C514.063 96.319 515.83 95.588 517.671 95.588C519.513 95.588 521.28 96.319 522.583 97.6205C523.886 98.922 524.619 100.687 524.621 102.529V123.378C524.619 125.22 523.886 126.987 522.583 128.29C521.28 129.592 519.514 130.325 517.671 130.327Z" fill="#6C63FF"/>
<path d="M546.242 130.327C544.399 130.325 542.633 129.592 541.33 128.29C540.027 126.987 539.294 125.22 539.292 123.378V102.529C539.295 100.687 540.028 98.922 541.331 97.6205C542.634 96.319 544.4 95.588 546.242 95.588C548.084 95.588 549.85 96.319 551.153 97.6205C552.456 98.922 553.189 100.687 553.191 102.529V123.378C553.189 125.22 552.456 126.987 551.154 128.29C549.851 129.592 548.084 130.325 546.242 130.327Z" fill="#6C63FF"/>
<path d="M564.774 130.327C562.931 130.325 561.165 129.592 559.862 128.29C558.559 126.987 557.827 125.22 557.824 123.378V102.529C557.827 100.687 558.56 98.922 559.863 97.6205C561.166 96.319 562.932 95.588 564.774 95.588C566.616 95.588 568.382 96.319 569.685 97.6205C570.988 98.922 571.721 100.687 571.724 102.529V123.378C571.721 125.22 570.989 126.987 569.686 128.29C568.383 129.592 566.616 130.325 564.774 130.327Z" fill="#6C63FF"/>
<path d="M583.306 130.327C581.464 130.325 579.697 129.592 578.394 128.29C577.092 126.987 576.359 125.22 576.357 123.378V102.529C576.359 100.687 577.092 98.922 578.395 97.6205C579.698 96.319 581.464 95.588 583.306 95.588C585.148 95.588 586.914 96.319 588.217 97.6205C589.52 98.922 590.253 100.687 590.256 102.529V123.378C590.254 125.22 589.521 126.987 588.218 128.29C586.915 129.592 585.149 130.325 583.306 130.327Z" fill="#6C63FF"/>
<path d="M396.454 207.673H296.504C295.891 207.674 295.283 207.554 294.715 207.32C294.148 207.086 293.632 206.742 293.198 206.308C292.764 205.874 292.419 205.359 292.184 204.792C291.949 204.225 291.828 203.618 291.828 203.004C291.828 202.39 291.949 201.782 292.184 201.215C292.419 200.648 292.764 200.133 293.198 199.7C293.632 199.266 294.148 198.922 294.715 198.688C295.283 198.453 295.891 198.333 296.504 198.334H396.454C397.692 198.336 398.878 198.829 399.752 199.704C400.626 200.58 401.117 201.767 401.117 203.004C401.117 204.241 400.626 205.428 399.752 206.303C398.878 207.179 397.692 207.672 396.454 207.673Z" fill="#E6E6E6"/>
<path d="M364.409 187.597H328.549C327.311 187.597 326.123 187.105 325.248 186.229C324.372 185.354 323.88 184.166 323.88 182.927C323.88 181.689 324.372 180.501 325.248 179.625C326.123 178.75 327.311 178.258 328.549 178.258H364.409C365.648 178.258 366.836 178.75 367.711 179.625C368.587 180.501 369.079 181.689 369.079 182.927C369.079 184.166 368.587 185.354 367.711 186.229C366.836 187.105 365.648 187.597 364.409 187.597Z" fill="#E6E6E6"/>
<path d="M652.029 46.1606H271.349V47.705H652.029V46.1606Z" fill="#3F3D56"/>
<path opacity="0.15" d="M227.821 202.764L227.011 200.936L260.015 186.299L267.883 158.697L256.023 149.108L257.28 147.552L270.169 157.973L261.682 187.748L227.821 202.764Z" fill="black"/>
<path opacity="0.1" d="M195.713 199.057L187.037 203.282L169.542 205.135C166.805 207.675 163.792 209.902 160.561 211.775L145.219 211.266L119.307 210.455L206.907 135.76L224.566 140.098C224.566 140.098 194.895 200.8 195.713 199.057Z" fill="black"/>
<path d="M318.093 175.153C315.794 175.596 313.273 175.962 310.487 176.243C296.105 177.681 265.703 179.592 263.023 179.727C245.016 180.574 233.694 180.564 233.694 180.564L195.713 199.057L187.037 203.282L116.72 210.729L211.936 129.539L223.471 132.371L242.993 137.172L264.501 142.46L283.163 143.299L307.311 144.382L326.83 145.259C330.212 145.376 333.41 146.827 335.726 149.294C338.041 151.761 339.287 155.045 339.19 158.427C338.883 164.866 334.418 171.981 318.093 175.153Z" fill="#FFB7B7"/>
<path opacity="0.15" d="M325.495 170.258C325.184 170.163 317.851 167.856 315.524 161.401C313.959 157.061 315.061 151.983 318.797 146.308L320.467 147.407C317.1 152.522 316.068 156.998 317.401 160.71C319.379 166.221 326.014 168.325 326.081 168.345L325.495 170.258Z" fill="black"/>
<path opacity="0.15" d="M230.62 180.946L197.017 197.313L197.893 199.111L231.496 182.744L230.62 180.946Z" fill="black"/>
<path opacity="0.15" d="M218.073 134.541L265.672 115.768L266.406 117.629L225.273 133.852L260.231 140.382L259.863 142.348L218.073 134.541Z" fill="black"/>
<g filter="url(#filter0_d_1_65)">
<path d="M619.098 212.547H615.987C615.93 212.144 615.814 211.787 615.639 211.474C615.464 211.157 615.239 210.887 614.964 210.665C614.69 210.442 614.373 210.272 614.013 210.153C613.658 210.035 613.272 209.976 612.855 209.976C612.102 209.976 611.446 210.163 610.888 210.537C610.329 210.906 609.896 211.446 609.588 212.156C609.28 212.862 609.126 213.719 609.126 214.727C609.126 215.764 609.28 216.635 609.588 217.341C609.901 218.046 610.336 218.579 610.895 218.939C611.454 219.299 612.1 219.479 612.834 219.479C613.246 219.479 613.627 219.424 613.977 219.315C614.332 219.206 614.647 219.048 614.922 218.839C615.196 218.626 615.424 218.368 615.604 218.065C615.788 217.762 615.916 217.417 615.987 217.028L619.098 217.043C619.018 217.71 618.816 218.354 618.494 218.974C618.177 219.59 617.749 220.142 617.209 220.629C616.674 221.112 616.035 221.496 615.291 221.78C614.553 222.059 613.717 222.199 612.784 222.199C611.487 222.199 610.327 221.905 609.304 221.318C608.286 220.731 607.481 219.881 606.889 218.768C606.302 217.656 606.009 216.309 606.009 214.727C606.009 213.141 606.307 211.792 606.903 210.679C607.5 209.566 608.31 208.719 609.332 208.136C610.355 207.549 611.506 207.256 612.784 207.256C613.627 207.256 614.408 207.374 615.128 207.611C615.852 207.848 616.494 208.193 617.053 208.648C617.611 209.098 618.066 209.649 618.416 210.303C618.771 210.956 618.999 211.704 619.098 212.547ZM623.931 207.455L627.447 218.506H627.582L631.104 207.455H634.513L629.499 222H625.536L620.515 207.455H623.931ZM648.278 212.547H645.167C645.11 212.144 644.994 211.787 644.819 211.474C644.644 211.157 644.419 210.887 644.144 210.665C643.87 210.442 643.552 210.272 643.192 210.153C642.837 210.035 642.451 209.976 642.035 209.976C641.282 209.976 640.626 210.163 640.067 210.537C639.509 210.906 639.076 211.446 638.768 212.156C638.46 212.862 638.306 213.719 638.306 214.727C638.306 215.764 638.46 216.635 638.768 217.341C639.08 218.046 639.516 218.579 640.075 218.939C640.633 219.299 641.28 219.479 642.013 219.479C642.425 219.479 642.807 219.424 643.157 219.315C643.512 219.206 643.827 219.048 644.102 218.839C644.376 218.626 644.603 218.368 644.783 218.065C644.968 217.762 645.096 217.417 645.167 217.028L648.278 217.043C648.197 217.71 647.996 218.354 647.674 218.974C647.357 219.59 646.928 220.142 646.388 220.629C645.853 221.112 645.214 221.496 644.471 221.78C643.732 222.059 642.897 222.199 641.964 222.199C640.666 222.199 639.506 221.905 638.484 221.318C637.466 220.731 636.661 219.881 636.069 218.768C635.482 217.656 635.188 216.309 635.188 214.727C635.188 213.141 635.487 211.792 636.083 210.679C636.68 209.566 637.489 208.719 638.512 208.136C639.535 207.549 640.685 207.256 641.964 207.256C642.807 207.256 643.588 207.374 644.308 207.611C645.032 207.848 645.674 208.193 646.232 208.648C646.791 209.098 647.246 209.649 647.596 210.303C647.951 210.956 648.178 211.704 648.278 212.547Z" fill="#6C63FF"/>
</g>
<g filter="url(#filter1_d_1_65)">
<path d="M566.207 32.0909V17.0909H569.19V18.9233H569.325C569.458 18.6297 569.65 18.3314 569.901 18.0284C570.156 17.7206 570.488 17.465 570.895 17.2614C571.307 17.053 571.818 16.9489 572.429 16.9489C573.224 16.9489 573.958 17.1572 574.631 17.5739C575.303 17.9858 575.84 18.6084 576.243 19.4418C576.645 20.2704 576.847 21.3097 576.847 22.5597C576.847 23.7765 576.65 24.804 576.257 25.642C575.869 26.4754 575.339 27.1075 574.666 27.5384C573.999 27.9645 573.25 28.1776 572.422 28.1776C571.835 28.1776 571.335 28.0805 570.923 27.8864C570.516 27.6922 570.182 27.4484 569.922 27.1548C569.661 26.8565 569.463 26.5559 569.325 26.2528H569.233V32.0909H566.207ZM569.169 22.5455C569.169 23.1941 569.259 23.7599 569.439 24.2429C569.619 24.7259 569.879 25.1023 570.22 25.3722C570.561 25.6373 570.975 25.7699 571.463 25.7699C571.955 25.7699 572.372 25.6349 572.713 25.3651C573.054 25.0904 573.312 24.7116 573.487 24.2287C573.667 23.741 573.757 23.1799 573.757 22.5455C573.757 21.9157 573.67 21.3617 573.494 20.8835C573.319 20.4053 573.061 20.0312 572.72 19.7614C572.379 19.4915 571.96 19.3565 571.463 19.3565C570.971 19.3565 570.554 19.4867 570.213 19.7472C569.877 20.0076 569.619 20.3769 569.439 20.8551C569.259 21.3333 569.169 21.8968 569.169 22.5455ZM583.835 28.2131C582.713 28.2131 581.747 27.9858 580.938 27.5312C580.133 27.072 579.512 26.4233 579.077 25.5852C578.641 24.7424 578.423 23.7457 578.423 22.5952C578.423 21.473 578.641 20.4882 579.077 19.6406C579.512 18.7931 580.125 18.1326 580.916 17.6591C581.712 17.1856 582.644 16.9489 583.714 16.9489C584.434 16.9489 585.104 17.0649 585.724 17.2969C586.349 17.5241 586.894 17.8674 587.358 18.3267C587.827 18.786 588.191 19.3636 588.452 20.0597C588.712 20.7509 588.842 21.5606 588.842 22.4886V23.3196H579.631V21.4446H585.994C585.994 21.009 585.9 20.6231 585.71 20.2869C585.521 19.9508 585.258 19.688 584.922 19.4986C584.59 19.3045 584.205 19.2074 583.764 19.2074C583.305 19.2074 582.898 19.3139 582.543 19.527C582.192 19.7353 581.918 20.017 581.719 20.3722C581.52 20.7225 581.418 21.1132 581.413 21.544V23.3267C581.413 23.8665 581.513 24.3329 581.712 24.7259C581.915 25.1188 582.202 25.4219 582.571 25.6349C582.94 25.848 583.378 25.9545 583.885 25.9545C584.221 25.9545 584.529 25.9072 584.808 25.8125C585.088 25.7178 585.327 25.5758 585.526 25.3864C585.724 25.197 585.876 24.965 585.98 24.6903L588.778 24.875C588.636 25.5473 588.345 26.1345 587.905 26.6364C587.469 27.1335 586.906 27.5218 586.214 27.8011C585.528 28.0758 584.735 28.2131 583.835 28.2131ZM593.842 21.6932V28H590.817V17.0909H593.7V19.0156H593.828C594.07 18.3812 594.474 17.8793 595.043 17.5099C595.611 17.1359 596.3 16.9489 597.109 16.9489C597.867 16.9489 598.527 17.1146 599.091 17.446C599.654 17.7775 600.092 18.2509 600.405 18.8665C600.717 19.4773 600.874 20.2064 600.874 21.054V28H597.848V21.5938C597.853 20.9261 597.682 20.4053 597.337 20.0312C596.991 19.6525 596.515 19.4631 595.909 19.4631C595.502 19.4631 595.142 19.5507 594.83 19.7259C594.522 19.901 594.28 20.1567 594.105 20.4929C593.935 20.8243 593.847 21.2244 593.842 21.6932ZM607.278 28.1776C606.449 28.1776 605.699 27.9645 605.027 27.5384C604.359 27.1075 603.829 26.4754 603.436 25.642C603.047 24.804 602.853 23.7765 602.853 22.5597C602.853 21.3097 603.055 20.2704 603.457 19.4418C603.859 18.6084 604.395 17.9858 605.062 17.5739C605.734 17.1572 606.471 16.9489 607.271 16.9489C607.882 16.9489 608.391 17.053 608.798 17.2614C609.21 17.465 609.541 17.7206 609.792 18.0284C610.048 18.3314 610.242 18.6297 610.375 18.9233H610.467V13.4545H613.485V28H610.502V26.2528H610.375C610.233 26.5559 610.031 26.8565 609.771 27.1548C609.515 27.4484 609.181 27.6922 608.77 27.8864C608.362 28.0805 607.865 28.1776 607.278 28.1776ZM608.237 25.7699C608.725 25.7699 609.136 25.6373 609.473 25.3722C609.814 25.1023 610.074 24.7259 610.254 24.2429C610.439 23.7599 610.531 23.1941 610.531 22.5455C610.531 21.8968 610.441 21.3333 610.261 20.8551C610.081 20.3769 609.821 20.0076 609.48 19.7472C609.139 19.4867 608.725 19.3565 608.237 19.3565C607.74 19.3565 607.321 19.4915 606.98 19.7614C606.639 20.0312 606.381 20.4053 606.206 20.8835C606.03 21.3617 605.943 21.9157 605.943 22.5455C605.943 23.1799 606.03 23.741 606.206 24.2287C606.386 24.7116 606.644 25.0904 606.98 25.3651C607.321 25.6349 607.74 25.7699 608.237 25.7699ZM615.973 28V17.0909H618.999V28H615.973ZM617.493 15.6847C617.043 15.6847 616.657 15.5355 616.335 15.2372C616.018 14.9342 615.859 14.572 615.859 14.1506C615.859 13.7339 616.018 13.3764 616.335 13.0781C616.657 12.7751 617.043 12.6236 617.493 12.6236C617.943 12.6236 618.326 12.7751 618.643 13.0781C618.965 13.3764 619.126 13.7339 619.126 14.1506C619.126 14.572 618.965 14.9342 618.643 15.2372C618.326 15.5355 617.943 15.6847 617.493 15.6847ZM624.448 21.6932V28H621.422V17.0909H624.306V19.0156H624.434C624.675 18.3812 625.08 17.8793 625.648 17.5099C626.216 17.1359 626.905 16.9489 627.715 16.9489C628.472 16.9489 629.133 17.1146 629.696 17.446C630.26 17.7775 630.698 18.2509 631.01 18.8665C631.323 19.4773 631.479 20.2064 631.479 21.054V28H628.453V21.5938C628.458 20.9261 628.288 20.4053 627.942 20.0312C627.596 19.6525 627.121 19.4631 626.515 19.4631C626.107 19.4631 625.748 19.5507 625.435 19.7259C625.127 19.901 624.886 20.1567 624.711 20.4929C624.54 20.8243 624.453 21.2244 624.448 21.6932ZM638.778 32.3182C637.798 32.3182 636.958 32.1832 636.257 31.9134C635.561 31.6482 635.007 31.286 634.595 30.8267C634.183 30.3674 633.916 29.8513 633.793 29.2784L636.591 28.902C636.676 29.1198 636.811 29.3234 636.996 29.5128C637.18 29.7022 637.424 29.8537 637.727 29.9673C638.035 30.0857 638.409 30.1449 638.849 30.1449C639.508 30.1449 640.05 29.9839 640.476 29.6619C640.907 29.3447 641.122 28.812 641.122 28.0639V26.0682H640.994C640.862 26.3712 640.663 26.6577 640.398 26.9276C640.133 27.1974 639.792 27.4176 639.375 27.5881C638.958 27.7585 638.461 27.8438 637.884 27.8438C637.064 27.8438 636.319 27.6544 635.646 27.2756C634.979 26.892 634.446 26.3073 634.048 25.5213C633.655 24.7306 633.459 23.7315 633.459 22.5241C633.459 21.2884 633.66 20.2562 634.062 19.4276C634.465 18.599 635 17.9787 635.668 17.5668C636.34 17.1548 637.076 16.9489 637.876 16.9489C638.487 16.9489 638.999 17.053 639.411 17.2614C639.822 17.465 640.154 17.7206 640.405 18.0284C640.661 18.3314 640.857 18.6297 640.994 18.9233H641.108V17.0909H644.112V28.1065C644.112 29.0346 643.885 29.8111 643.43 30.4361C642.976 31.0611 642.346 31.5298 641.541 31.8423C640.741 32.1596 639.82 32.3182 638.778 32.3182ZM638.842 25.571C639.33 25.571 639.742 25.4503 640.078 25.2088C640.419 24.9626 640.679 24.6122 640.859 24.1577C641.044 23.6984 641.136 23.1491 641.136 22.5099C641.136 21.8707 641.046 21.3168 640.866 20.848C640.687 20.3745 640.426 20.0076 640.085 19.7472C639.744 19.4867 639.33 19.3565 638.842 19.3565C638.345 19.3565 637.926 19.4915 637.585 19.7614C637.244 20.0265 636.986 20.3958 636.811 20.8693C636.636 21.3428 636.548 21.8897 636.548 22.5099C636.548 23.1397 636.636 23.6842 636.811 24.1435C636.991 24.598 637.249 24.9508 637.585 25.2017C637.926 25.4479 638.345 25.571 638.842 25.571Z" fill="#6C63FF"/>
</g>
<g filter="url(#filter2_d_1_65)">
<circle cx="466" cy="113" r="83.5" stroke="#10A1DF" stroke-width="3" shape-rendering="crispEdges"/>
</g>
<g filter="url(#filter3_d_1_65)">
<path d="M481.224 42.5455L478.455 144.392H452.46L449.619 42.5455H481.224ZM465.457 189.847C460.77 189.847 456.745 188.189 453.384 184.875C450.022 181.513 448.365 177.489 448.412 172.801C448.365 168.161 450.022 164.184 453.384 160.869C456.745 157.555 460.77 155.898 465.457 155.898C469.955 155.898 473.909 157.555 477.318 160.869C480.727 164.184 482.455 168.161 482.503 172.801C482.455 175.926 481.627 178.791 480.017 181.395C478.455 183.952 476.395 186.011 473.838 187.574C471.281 189.089 468.488 189.847 465.457 189.847Z" fill="#10A1DF"/>
</g>
</g>
<defs>
<filter id="filter0_d_1_65" x="602.009" y="207.256" width="50.2692" height="22.9431" filterUnits="userSpaceOnUse" color-interpolation-filters="sRGB">
<feFlood flood-opacity="0" result="BackgroundImageFix"/>
<feColorMatrix in="SourceAlpha" type="matrix" values="0 0 0 0 0 0 0 0 0 0 0 0 0 0 0 0 0 0 127 0" result="hardAlpha"/>
<feOffset dy="4"/>
<feGaussianBlur stdDeviation="2"/>
<feComposite in2="hardAlpha" operator="out"/>
<feColorMatrix type="matrix" values="0 0 0 0 0 0 0 0 0 0 0 0 0 0 0 0 0 0 0.25 0"/>
<feBlend mode="normal" in2="BackgroundImageFix" result="effect1_dropShadow_1_65"/>
<feBlend mode="normal" in="SourceGraphic" in2="effect1_dropShadow_1_65" result="shape"/>
</filter>
<filter id="filter1_d_1_65" x="562.207" y="12.6236" width="85.9048" height="27.6946" filterUnits="userSpaceOnUse" color-interpolation-filters="sRGB">
<feFlood flood-opacity="0" result="BackgroundImageFix"/>
<feColorMatrix in="SourceAlpha" type="matrix" values="0 0 0 0 0 0 0 0 0 0 0 0 0 0 0 0 0 0 127 0" result="hardAlpha"/>
<feOffset dy="4"/>
<feGaussianBlur stdDeviation="2"/>
<feComposite in2="hardAlpha" operator="out"/>
<feColorMatrix type="matrix" values="0 0 0 0 0 0 0 0 0 0 0 0 0 0 0 0 0 0 0.25 0"/>
<feBlend mode="normal" in2="BackgroundImageFix" result="effect1_dropShadow_1_65"/>
<feBlend mode="normal" in="SourceGraphic" in2="effect1_dropShadow_1_65" result="shape"/>
</filter>
<filter id="filter2_d_1_65" x="377" y="28" width="178" height="178" filterUnits="userSpaceOnUse" color-interpolation-filters="sRGB">
<feFlood flood-opacity="0" result="BackgroundImageFix"/>
<feColorMatrix in="SourceAlpha" type="matrix" values="0 0 0 0 0 0 0 0 0 0 0 0 0 0 0 0 0 0 127 0" result="hardAlpha"/>
<feOffset dy="4"/>
<feGaussianBlur stdDeviation="2"/>
<feComposite in2="hardAlpha" operator="out"/>
<feColorMatrix type="matrix" values="0 0 0 0 0 0 0 0 0 0 0 0 0 0 0 0 0 0 0.25 0"/>
<feBlend mode="normal" in2="BackgroundImageFix" result="effect1_dropShadow_1_65"/>
<feBlend mode="normal" in="SourceGraphic" in2="effect1_dropShadow_1_65" result="shape"/>
</filter>
<filter id="filter3_d_1_65" x="444.341" y="42.5455" width="42.1619" height="155.301" filterUnits="userSpaceOnUse" color-interpolation-filters="sRGB">
<feFlood flood-opacity="0" result="BackgroundImageFix"/>
<feColorMatrix in="SourceAlpha" type="matrix" values="0 0 0 0 0 0 0 0 0 0 0 0 0 0 0 0 0 0 127 0" result="hardAlpha"/>
<feOffset dy="4"/>
<feGaussianBlur stdDeviation="2"/>
<feComposite in2="hardAlpha" operator="out"/>
<feColorMatrix type="matrix" values="0 0 0 0 0 0 0 0 0 0 0 0 0 0 0 0 0 0 0.25 0"/>
<feBlend mode="normal" in2="BackgroundImageFix" result="effect1_dropShadow_1_65"/>
<feBlend mode="normal" in="SourceGraphic" in2="effect1_dropShadow_1_65" result="shape"/>
</filter>
<clipPath id="clip0_1_65">
<rect width="653.852" height="247.587" fill="white"/>
</clipPath>
</defs>
</svg>
