<svg width="654" height="248" viewBox="0 0 654 248" fill="none" xmlns="http://www.w3.org/2000/svg">
<g clip-path="url(#clip0_1_2)">
<path d="M272.428 210.593L218.954 222.656C218.954 222.656 208.05 221.415 218.39 206.191C219.319 204.819 220.421 203.345 221.716 201.743L249.429 188.142L249.172 186.313L243.271 144.701L240.99 128.595L258.383 112.425L261.704 109.336L305.848 150.169L305.533 150.75L287.079 184.105L272.428 210.593Z" fill="#FFB7B7"/>
<path d="M252.656 198.466L199.182 210.529C198.379 210.438 197.604 210.177 196.91 209.765C196.215 209.353 195.615 208.798 195.151 208.137C194.686 207.475 194.367 206.723 194.215 205.93C194.063 205.136 194.08 204.32 194.267 203.533C194.526 201.978 195.013 200.47 195.713 199.057C197.411 195.675 199.503 192.506 201.944 189.615L229.657 176.014L226.259 152.049L224.566 140.097L223.471 132.371L221.218 116.468L241.932 97.2088L264.492 118.071L286.076 138.042L283.163 143.299L279.69 149.583L263.023 179.727L259.627 185.867L252.656 198.466Z" fill="#FFB7B7"/>
<path d="M345.624 190.042C345.624 190.042 325.587 188.708 318.093 175.153C315.721 170.668 314.807 165.555 315.478 160.526L307.311 144.382L295.688 121.38L266.039 116.699L264.492 118.071L242.993 137.172L236.416 143.016L226.259 152.049L177.002 195.812C175.041 199.306 172.521 202.455 169.542 205.135C166.805 207.675 163.792 209.902 160.561 211.775C151.162 217.229 137.113 221.468 116.91 219.242L10.4088 247.587L0 176.161L89.3275 146.791L220.331 61.0991L308.767 83.731L349.776 141.961L345.624 190.042Z" fill="#FFB7B7"/>
<path d="M648.447 0H275.487C274.054 0.00160396 272.681 0.571607 271.667 1.58493C270.654 2.59825 270.084 3.97216 270.082 5.40521V226.246C270.084 227.679 270.654 229.053 271.667 230.067C272.68 231.08 274.054 231.65 275.487 231.651H648.447C649.88 231.65 651.254 231.08 652.267 230.067C653.28 229.053 653.85 227.679 653.852 226.246V5.40518C653.85 3.97215 653.28 2.5983 652.267 1.58499C651.254 0.571687 649.88 0.00166734 648.447 0Z" fill="white"/>
<path d="M648.447 0H275.487C274.054 0.00160396 272.681 0.571607 271.667 1.58493C270.654 2.59825 270.084 3.97216 270.082 5.40521V226.246C270.084 227.679 270.654 229.053 271.667 230.067C272.68 231.08 274.054 231.65 275.487 231.651H648.447C649.88 231.65 651.254 231.08 652.267 230.067C653.28 229.053 653.85 227.679 653.852 226.246V5.40518C653.85 3.97215 653.28 2.5983 652.267 1.58499C651.254 0.571687 649.88 0.00166734 648.447 0ZM652.308 226.246C652.307 227.27 651.9 228.252 651.176 228.976C650.452 229.7 649.471 230.107 648.447 230.107H275.487C274.464 230.107 273.482 229.7 272.758 228.976C272.034 228.252 271.627 227.27 271.627 226.246V5.40518C271.627 4.38135 272.034 3.39958 272.758 2.67563C273.482 1.95167 274.464 1.54478 275.487 1.54434H648.447C649.471 1.54478 650.452 1.95167 651.176 2.67563C651.9 3.39958 652.307 4.38135 652.308 5.40518V226.246Z" fill="#3F3D56"/>
<path d="M311.777 30.1164C309.944 30.1164 308.153 29.573 306.629 28.5548C305.105 27.5366 303.917 26.0895 303.216 24.3963C302.515 22.7032 302.331 20.8401 302.689 19.0426C303.046 17.2452 303.929 15.5942 305.225 14.2983C306.521 13.0024 308.172 12.1199 309.969 11.7624C311.767 11.4048 313.63 11.5883 315.323 12.2896C317.016 12.991 318.463 14.1786 319.481 15.7024C320.499 17.2262 321.043 19.0177 321.043 20.8504C321.043 23.3079 320.067 25.6647 318.329 27.4025C316.591 29.1402 314.234 30.1164 311.777 30.1164ZM311.777 13.1286C310.25 13.1286 308.757 13.5815 307.487 14.43C306.217 15.2785 305.227 16.4844 304.643 17.8954C304.058 19.3063 303.905 20.8589 304.203 22.3568C304.501 23.8546 305.237 25.2305 306.317 26.3105C307.397 27.3904 308.772 28.1258 310.27 28.4237C311.768 28.7216 313.321 28.5687 314.732 27.9843C316.143 27.3999 317.349 26.4101 318.197 25.1403C319.046 23.8705 319.498 22.3776 319.498 20.8504C319.498 19.8363 319.299 18.8322 318.911 17.8954C318.523 16.9585 317.954 16.1073 317.237 15.3903C316.52 14.6733 315.669 14.1045 314.732 13.7164C313.795 13.3284 312.791 13.1286 311.777 13.1286Z" fill="#6C63FF"/>
<path d="M297.374 20.8504C297.374 19.0828 297.926 17.3594 298.952 15.9201C299.978 14.4809 301.427 13.3975 303.098 12.8208C301.819 12.3795 300.452 12.2502 299.113 12.4438C297.774 12.6374 296.5 13.1483 295.398 13.9339C294.296 14.7195 293.397 15.757 292.778 16.9601C292.158 18.1632 291.834 19.497 291.834 20.8504C291.834 22.2037 292.158 23.5375 292.778 24.7406C293.397 25.9437 294.296 26.9812 295.398 27.7668C296.5 28.5524 297.774 29.0633 299.113 29.2569C300.452 29.4505 301.819 29.3212 303.098 28.8798C301.427 28.3032 299.978 27.2198 298.952 25.7806C297.926 24.3413 297.374 22.6179 297.374 20.8504Z" fill="#6C63FF"/>
<path d="M349.338 130.327C347.496 130.325 345.729 129.592 344.426 128.29C343.123 126.987 342.391 125.22 342.389 123.378V102.529C342.391 100.688 343.124 98.922 344.427 97.6205C345.73 96.319 347.496 95.588 349.338 95.588C351.18 95.588 352.946 96.319 354.249 97.6205C355.552 98.922 356.285 100.688 356.288 102.529V123.378C356.285 125.22 355.553 126.987 354.25 128.29C352.947 129.592 351.181 130.325 349.338 130.327Z" fill="#6C63FF"/>
<path d="M367.87 130.327C366.028 130.325 364.261 129.592 362.958 128.29C361.656 126.987 360.923 125.22 360.921 123.378V102.529C360.923 100.688 361.656 98.922 362.959 97.6205C364.262 96.319 366.028 95.588 367.87 95.588C369.712 95.588 371.478 96.319 372.781 97.6205C374.084 98.922 374.817 100.688 374.82 102.529V123.378C374.818 125.22 374.085 126.987 372.782 128.29C371.479 129.592 369.713 130.325 367.87 130.327Z" fill="#6C63FF"/>
<path d="M386.402 130.327C384.56 130.325 382.793 129.592 381.491 128.29C380.188 126.987 379.455 125.22 379.453 123.378V102.529C379.455 100.688 380.188 98.922 381.491 97.6205C382.794 96.319 384.561 95.588 386.402 95.588C388.244 95.588 390.01 96.319 391.313 97.6205C392.616 98.922 393.35 100.688 393.352 102.529V123.378C393.35 125.22 392.617 126.987 391.314 128.29C390.011 129.592 388.245 130.325 386.402 130.327Z" fill="#6C63FF"/>
<path d="M414.973 130.327C413.13 130.325 411.364 129.592 410.061 128.29C408.758 126.987 408.025 125.22 408.023 123.378V102.529C408.025 100.688 408.758 98.922 410.062 97.6205C411.365 96.319 413.131 95.588 414.973 95.588C416.814 95.588 418.581 96.319 419.884 97.6205C421.187 98.922 421.92 100.688 421.922 102.529V123.378C421.92 125.22 421.187 126.987 419.884 128.29C418.582 129.592 416.815 130.325 414.973 130.327Z" fill="#6C63FF"/>
<path d="M433.505 130.327C431.662 130.325 429.896 129.592 428.593 128.29C427.29 126.987 426.557 125.22 426.555 123.378V102.529C426.557 100.688 427.291 98.922 428.594 97.6205C429.897 96.319 431.663 95.588 433.505 95.588C435.346 95.588 437.113 96.319 438.416 97.6205C439.719 98.922 440.452 100.688 440.454 102.529V123.378C440.452 125.22 439.719 126.987 438.417 128.29C437.114 129.592 435.347 130.325 433.505 130.327Z" fill="#6C63FF"/>
<path d="M452.037 130.327C450.194 130.325 448.428 129.592 447.125 128.29C445.822 126.987 445.089 125.22 445.087 123.378V102.529C445.09 100.688 445.823 98.922 447.126 97.6205C448.429 96.319 450.195 95.588 452.037 95.588C453.879 95.588 455.645 96.319 456.948 97.6205C458.251 98.922 458.984 100.688 458.986 102.529V123.378C458.984 125.22 458.251 126.987 456.949 128.29C455.646 129.592 453.879 130.325 452.037 130.327Z" fill="#6C63FF"/>
<path d="M480.607 130.327C478.765 130.325 476.998 129.592 475.695 128.29C474.393 126.987 473.66 125.22 473.658 123.378V102.529C473.66 100.688 474.393 98.922 475.696 97.6205C476.999 96.319 478.766 95.588 480.607 95.588C482.449 95.588 484.215 96.319 485.518 97.6205C486.821 98.922 487.555 100.688 487.557 102.529V123.378C487.555 125.22 486.822 126.987 485.519 128.29C484.216 129.592 482.45 130.325 480.607 130.327Z" fill="#6C63FF"/>
<path d="M499.139 130.327C497.297 130.325 495.53 129.592 494.228 128.29C492.925 126.987 492.192 125.22 492.19 123.378V102.529C492.192 100.688 492.925 98.922 494.228 97.6205C495.531 96.319 497.298 95.588 499.139 95.588C500.981 95.588 502.747 96.319 504.05 97.6205C505.354 98.922 506.087 100.688 506.089 102.529V123.378C506.087 125.22 505.354 126.987 504.051 128.29C502.748 129.592 500.982 130.325 499.139 130.327Z" fill="#6C63FF"/>
<path d="M517.671 130.327C515.829 130.325 514.063 129.592 512.76 128.29C511.457 126.987 510.724 125.22 510.722 123.378V102.529C510.724 100.688 511.457 98.922 512.76 97.6205C514.063 96.319 515.83 95.588 517.671 95.588C519.513 95.588 521.28 96.319 522.583 97.6205C523.886 98.922 524.619 100.688 524.621 102.529V123.378C524.619 125.22 523.886 126.987 522.583 128.29C521.28 129.592 519.514 130.325 517.671 130.327Z" fill="#6C63FF"/>
<path d="M546.242 130.327C544.399 130.325 542.633 129.592 541.33 128.29C540.027 126.987 539.294 125.22 539.292 123.378V102.529C539.295 100.688 540.028 98.922 541.331 97.6205C542.634 96.319 544.4 95.588 546.242 95.588C548.084 95.588 549.85 96.319 551.153 97.6205C552.456 98.922 553.189 100.688 553.191 102.529V123.378C553.189 125.22 552.456 126.987 551.154 128.29C549.851 129.592 548.084 130.325 546.242 130.327Z" fill="#6C63FF"/>
<path d="M564.774 130.327C562.931 130.325 561.165 129.592 559.862 128.29C558.559 126.987 557.827 125.22 557.824 123.378V102.529C557.827 100.688 558.56 98.922 559.863 97.6205C561.166 96.319 562.932 95.588 564.774 95.588C566.616 95.588 568.382 96.319 569.685 97.6205C570.988 98.922 571.721 100.688 571.724 102.529V123.378C571.721 125.22 570.989 126.987 569.686 128.29C568.383 129.592 566.616 130.325 564.774 130.327Z" fill="#6C63FF"/>
<path d="M583.306 130.327C581.464 130.325 579.697 129.592 578.394 128.29C577.092 126.987 576.359 125.22 576.357 123.378V102.529C576.359 100.688 577.092 98.922 578.395 97.6205C579.698 96.319 581.464 95.588 583.306 95.588C585.148 95.588 586.914 96.319 588.217 97.6205C589.52 98.922 590.253 100.688 590.256 102.529V123.378C590.254 125.22 589.521 126.987 588.218 128.29C586.915 129.592 585.149 130.325 583.306 130.327Z" fill="#6C63FF"/>
<path d="M396.454 207.673H296.504C295.891 207.674 295.283 207.554 294.715 207.32C294.148 207.086 293.632 206.742 293.198 206.308C292.764 205.874 292.419 205.359 292.184 204.792C291.949 204.225 291.828 203.618 291.828 203.004C291.828 202.39 291.949 201.782 292.184 201.215C292.419 200.648 292.764 200.133 293.198 199.7C293.632 199.266 294.148 198.922 294.715 198.688C295.283 198.453 295.891 198.333 296.504 198.334H396.454C397.692 198.336 398.878 198.829 399.752 199.704C400.626 200.58 401.117 201.767 401.117 203.004C401.117 204.241 400.626 205.428 399.752 206.303C398.878 207.179 397.692 207.672 396.454 207.673Z" fill="#E6E6E6"/>
<path d="M364.409 187.597H328.549C327.311 187.597 326.123 187.105 325.248 186.229C324.372 185.354 323.88 184.166 323.88 182.927C323.88 181.689 324.372 180.501 325.248 179.625C326.123 178.75 327.311 178.258 328.549 178.258H364.409C365.648 178.258 366.836 178.75 367.711 179.625C368.587 180.501 369.079 181.689 369.079 182.927C369.079 184.166 368.587 185.354 367.711 186.229C366.836 187.105 365.648 187.597 364.409 187.597Z" fill="#E6E6E6"/>
<path d="M652.029 46.1606H271.349V47.705H652.029V46.1606Z" fill="#3F3D56"/>
<path opacity="0.15" d="M227.821 202.764L227.011 200.936L260.015 186.299L267.883 158.697L256.023 149.108L257.28 147.552L270.169 157.973L261.682 187.748L227.821 202.764Z" fill="black"/>
<path opacity="0.1" d="M195.713 199.057L187.037 203.282L169.542 205.135C166.805 207.675 163.792 209.902 160.561 211.775L145.219 211.266L119.307 210.455L206.907 135.76L224.566 140.098C224.566 140.098 194.895 200.8 195.713 199.057Z" fill="black"/>
<path d="M318.093 175.153C315.794 175.596 313.273 175.962 310.487 176.243C296.105 177.681 265.703 179.592 263.023 179.727C245.016 180.574 233.694 180.564 233.694 180.564L195.713 199.057L187.037 203.282L116.72 210.729L211.936 129.539L223.471 132.37L242.993 137.172L264.501 142.46L283.163 143.299L307.311 144.382L326.83 145.259C330.212 145.376 333.41 146.827 335.726 149.294C338.041 151.761 339.287 155.045 339.19 158.427C338.883 164.866 334.418 171.981 318.093 175.153Z" fill="#FFB7B7"/>
<path opacity="0.15" d="M325.495 170.258C325.184 170.163 317.851 167.856 315.524 161.401C313.959 157.061 315.061 151.983 318.797 146.308L320.467 147.407C317.1 152.522 316.068 156.998 317.401 160.71C319.379 166.221 326.014 168.325 326.081 168.345L325.495 170.258Z" fill="black"/>
<path opacity="0.15" d="M230.62 180.946L197.017 197.313L197.893 199.111L231.496 182.744L230.62 180.946Z" fill="black"/>
<path opacity="0.15" d="M218.073 134.541L265.672 115.768L266.406 117.629L225.273 133.852L260.231 140.382L259.863 142.348L218.073 134.541Z" fill="black"/>
<g filter="url(#filter0_d_1_2)">
<path d="M619.098 212.547H615.987C615.93 212.144 615.814 211.787 615.639 211.474C615.464 211.157 615.239 210.887 614.964 210.665C614.69 210.442 614.373 210.272 614.013 210.153C613.658 210.035 613.272 209.976 612.855 209.976C612.102 209.976 611.446 210.163 610.888 210.537C610.329 210.906 609.896 211.446 609.588 212.156C609.28 212.862 609.126 213.719 609.126 214.727C609.126 215.764 609.28 216.635 609.588 217.341C609.901 218.046 610.336 218.579 610.895 218.939C611.454 219.299 612.1 219.479 612.834 219.479C613.246 219.479 613.627 219.424 613.977 219.315C614.332 219.206 614.647 219.048 614.922 218.839C615.196 218.626 615.424 218.368 615.604 218.065C615.788 217.762 615.916 217.417 615.987 217.028L619.098 217.043C619.018 217.71 618.816 218.354 618.494 218.974C618.177 219.59 617.749 220.142 617.209 220.629C616.674 221.112 616.035 221.496 615.291 221.78C614.553 222.059 613.717 222.199 612.784 222.199C611.487 222.199 610.327 221.905 609.304 221.318C608.286 220.731 607.481 219.881 606.889 218.768C606.302 217.656 606.009 216.309 606.009 214.727C606.009 213.141 606.307 211.792 606.903 210.679C607.5 209.566 608.31 208.719 609.332 208.136C610.355 207.549 611.506 207.256 612.784 207.256C613.627 207.256 614.408 207.374 615.128 207.611C615.852 207.848 616.494 208.193 617.053 208.648C617.611 209.098 618.066 209.649 618.416 210.303C618.771 210.956 618.999 211.704 619.098 212.547ZM623.931 207.455L627.447 218.506H627.582L631.104 207.455H634.513L629.499 222H625.536L620.515 207.455H623.931ZM648.278 212.547H645.167C645.11 212.144 644.994 211.787 644.819 211.474C644.644 211.157 644.419 210.887 644.144 210.665C643.87 210.442 643.552 210.272 643.192 210.153C642.837 210.035 642.451 209.976 642.035 209.976C641.282 209.976 640.626 210.163 640.067 210.537C639.509 210.906 639.076 211.446 638.768 212.156C638.46 212.862 638.306 213.719 638.306 214.727C638.306 215.764 638.46 216.635 638.768 217.341C639.08 218.046 639.516 218.579 640.075 218.939C640.633 219.299 641.28 219.479 642.013 219.479C642.425 219.479 642.807 219.424 643.157 219.315C643.512 219.206 643.827 219.048 644.102 218.839C644.376 218.626 644.603 218.368 644.783 218.065C644.968 217.762 645.096 217.417 645.167 217.028L648.278 217.043C648.197 217.71 647.996 218.354 647.674 218.974C647.357 219.59 646.928 220.142 646.388 220.629C645.853 221.112 645.214 221.496 644.471 221.78C643.732 222.059 642.897 222.199 641.964 222.199C640.666 222.199 639.506 221.905 638.484 221.318C637.466 220.731 636.661 219.881 636.069 218.768C635.482 217.656 635.188 216.309 635.188 214.727C635.188 213.141 635.487 211.792 636.083 210.679C636.68 209.566 637.489 208.719 638.512 208.136C639.535 207.549 640.685 207.256 641.964 207.256C642.807 207.256 643.588 207.374 644.308 207.611C645.032 207.848 645.674 208.193 646.232 208.648C646.791 209.098 647.246 209.649 647.596 210.303C647.951 210.956 648.178 211.704 648.278 212.547Z" fill="#6C63FF"/>
</g>
<g filter="url(#filter1_d_1_2)">
<path d="M574.155 19.6378C574.098 19.0649 573.854 18.6198 573.423 18.3026C572.992 17.9853 572.408 17.8267 571.669 17.8267C571.167 17.8267 570.743 17.8977 570.398 18.0398C570.052 18.1771 569.787 18.3688 569.602 18.6151C569.422 18.8613 569.332 19.1406 569.332 19.4531C569.323 19.7135 569.377 19.9408 569.496 20.1349C569.619 20.3291 569.787 20.4972 570 20.6392C570.213 20.7765 570.459 20.8973 570.739 21.0014C571.018 21.1009 571.316 21.1861 571.634 21.2571L572.94 21.5696C573.575 21.7116 574.157 21.901 574.688 22.1378C575.218 22.3745 575.677 22.6657 576.065 23.0114C576.454 23.357 576.754 23.7642 576.967 24.233C577.185 24.7017 577.296 25.2391 577.301 25.8452C577.296 26.7353 577.069 27.5071 576.619 28.1605C576.174 28.8092 575.53 29.3134 574.688 29.6733C573.849 30.0284 572.839 30.206 571.655 30.206C570.481 30.206 569.458 30.026 568.587 29.6662C567.72 29.3063 567.043 28.7737 566.555 28.0682C566.072 27.358 565.819 26.4796 565.795 25.4332H568.771C568.804 25.9209 568.944 26.3281 569.19 26.6548C569.441 26.9768 569.775 27.2206 570.192 27.3864C570.613 27.5473 571.089 27.6278 571.619 27.6278C572.14 27.6278 572.592 27.5521 572.976 27.4006C573.364 27.2491 573.665 27.0384 573.878 26.7685C574.091 26.4986 574.197 26.1884 574.197 25.8381C574.197 25.5114 574.1 25.2367 573.906 25.0142C573.717 24.7917 573.438 24.6023 573.068 24.446C572.704 24.2898 572.256 24.1477 571.726 24.0199L570.142 23.6222C568.916 23.3239 567.947 22.8575 567.237 22.223C566.527 21.5885 566.174 20.7339 566.179 19.6591C566.174 18.7784 566.409 18.009 566.882 17.3509C567.36 16.6927 568.016 16.179 568.849 15.8097C569.683 15.4403 570.63 15.2557 571.69 15.2557C572.77 15.2557 573.712 15.4403 574.517 15.8097C575.327 16.179 575.956 16.6927 576.406 17.3509C576.856 18.009 577.088 18.7713 577.102 19.6378H574.155ZM586.309 25.3551V19.0909H589.334V30H586.429V28.0185H586.316C586.069 28.6577 585.66 29.1714 585.087 29.5597C584.519 29.9479 583.825 30.142 583.006 30.142C582.277 30.142 581.635 29.9763 581.081 29.6449C580.527 29.3134 580.094 28.8423 579.782 28.2315C579.474 27.6207 579.318 26.8892 579.313 26.0369V19.0909H582.338V25.4972C582.343 26.1411 582.516 26.6501 582.857 27.0241C583.198 27.3982 583.655 27.5852 584.228 27.5852C584.592 27.5852 584.933 27.5024 585.25 27.3366C585.568 27.1662 585.823 26.9152 586.017 26.5838C586.216 26.2524 586.313 25.8428 586.309 25.3551ZM596.683 30.2131C595.566 30.2131 594.605 29.9763 593.8 29.5028C593 29.0246 592.384 28.3617 591.953 27.5142C591.527 26.6667 591.314 25.6913 591.314 24.5881C591.314 23.4706 591.529 22.4905 591.96 21.6477C592.396 20.8002 593.014 20.1397 593.814 19.6662C594.614 19.188 595.566 18.9489 596.669 18.9489C597.621 18.9489 598.454 19.1217 599.169 19.4673C599.884 19.813 600.45 20.2983 600.866 20.9233C601.283 21.5483 601.513 22.2822 601.555 23.125H598.7C598.62 22.5805 598.407 22.1425 598.061 21.8111C597.72 21.4749 597.273 21.3068 596.719 21.3068C596.25 21.3068 595.84 21.4347 595.49 21.6903C595.144 21.9413 594.875 22.3082 594.68 22.7912C594.486 23.2741 594.389 23.8589 594.389 24.5455C594.389 25.2415 594.484 25.8333 594.673 26.321C594.867 26.8087 595.14 27.1804 595.49 27.4361C595.84 27.6918 596.25 27.8196 596.719 27.8196C597.064 27.8196 597.375 27.7486 597.649 27.6065C597.929 27.4645 598.158 27.2585 598.338 26.9886C598.523 26.714 598.643 26.3849 598.7 26.0014H601.555C601.508 26.8348 601.281 27.5687 600.874 28.2031C600.471 28.8329 599.915 29.3253 599.205 29.6804C598.494 30.0355 597.654 30.2131 596.683 30.2131ZM608.422 30.2131C607.304 30.2131 606.343 29.9763 605.538 29.5028C604.738 29.0246 604.122 28.3617 603.691 27.5142C603.265 26.6667 603.052 25.6913 603.052 24.5881C603.052 23.4706 603.268 22.4905 603.699 21.6477C604.134 20.8002 604.752 20.1397 605.552 19.6662C606.352 19.188 607.304 18.9489 608.407 18.9489C609.359 18.9489 610.192 19.1217 610.907 19.4673C611.622 19.813 612.188 20.2983 612.605 20.9233C613.021 21.5483 613.251 22.2822 613.294 23.125H610.439C610.358 22.5805 610.145 22.1425 609.799 21.8111C609.458 21.4749 609.011 21.3068 608.457 21.3068C607.988 21.3068 607.579 21.4347 607.228 21.6903C606.883 21.9413 606.613 22.3082 606.419 22.7912C606.225 23.2741 606.127 23.8589 606.127 24.5455C606.127 25.2415 606.222 25.8333 606.412 26.321C606.606 26.8087 606.878 27.1804 607.228 27.4361C607.579 27.6918 607.988 27.8196 608.457 27.8196C608.803 27.8196 609.113 27.7486 609.387 27.6065C609.667 27.4645 609.896 27.2585 610.076 26.9886C610.261 26.714 610.382 26.3849 610.439 26.0014H613.294C613.246 26.8348 613.019 27.5687 612.612 28.2031C612.209 28.8329 611.653 29.3253 610.943 29.6804C610.233 30.0355 609.392 30.2131 608.422 30.2131ZM620.202 30.2131C619.08 30.2131 618.114 29.9858 617.305 29.5312C616.5 29.072 615.879 28.4233 615.444 27.5852C615.008 26.7424 614.79 25.7457 614.79 24.5952C614.79 23.473 615.008 22.4882 615.444 21.6406C615.879 20.7931 616.493 20.1326 617.283 19.6591C618.079 19.1856 619.012 18.9489 620.082 18.9489C620.801 18.9489 621.471 19.0649 622.092 19.2969C622.717 19.5241 623.261 19.8674 623.725 20.3267C624.194 20.786 624.558 21.3636 624.819 22.0597C625.079 22.7509 625.21 23.5606 625.21 24.4886V25.3196H615.998V23.4446H622.362C622.362 23.009 622.267 22.6231 622.077 22.2869C621.888 21.9508 621.625 21.688 621.289 21.4986C620.958 21.3045 620.572 21.2074 620.131 21.2074C619.672 21.2074 619.265 21.3139 618.91 21.527C618.559 21.7353 618.285 22.017 618.086 22.3722C617.887 22.7225 617.785 23.1132 617.781 23.544V25.3267C617.781 25.8665 617.88 26.3329 618.079 26.7259C618.282 27.1188 618.569 27.4219 618.938 27.6349C619.308 27.848 619.746 27.9545 620.252 27.9545C620.588 27.9545 620.896 27.9072 621.175 27.8125C621.455 27.7178 621.694 27.5758 621.893 27.3864C622.092 27.197 622.243 26.965 622.347 26.6903L625.146 26.875C625.004 27.5473 624.712 28.1345 624.272 28.6364C623.836 29.1335 623.273 29.5218 622.582 29.8011C621.895 30.0758 621.102 30.2131 620.202 30.2131ZM636.261 22.2017L633.491 22.3722C633.443 22.1354 633.342 21.9223 633.185 21.733C633.029 21.5388 632.823 21.3849 632.567 21.2713C632.317 21.1529 632.016 21.0938 631.665 21.0938C631.197 21.0938 630.801 21.1932 630.479 21.392C630.157 21.5862 629.996 21.8466 629.996 22.1733C629.996 22.4337 630.101 22.6539 630.309 22.8338C630.517 23.0137 630.875 23.1581 631.381 23.267L633.356 23.6648C634.416 23.8826 635.207 24.233 635.728 24.7159C636.249 25.1989 636.509 25.8333 636.509 26.6193C636.509 27.3343 636.299 27.9616 635.877 28.5014C635.46 29.0412 634.888 29.4626 634.158 29.7656C633.434 30.0639 632.598 30.2131 631.651 30.2131C630.207 30.2131 629.057 29.9124 628.2 29.3111C627.347 28.705 626.848 27.8812 626.701 26.8395L629.677 26.6832C629.767 27.1236 629.985 27.4598 630.33 27.6918C630.676 27.919 631.119 28.0327 631.658 28.0327C632.189 28.0327 632.615 27.9309 632.937 27.7273C633.263 27.5189 633.429 27.2514 633.434 26.9247C633.429 26.6501 633.313 26.4252 633.086 26.25C632.859 26.0701 632.508 25.9328 632.035 25.8381L630.146 25.4616C629.08 25.2486 628.287 24.8793 627.766 24.3537C627.25 23.8281 626.992 23.1581 626.992 22.3438C626.992 21.643 627.182 21.0393 627.56 20.5327C627.944 20.026 628.481 19.6354 629.173 19.3608C629.869 19.0862 630.683 18.9489 631.616 18.9489C632.994 18.9489 634.078 19.2401 634.869 19.8224C635.664 20.4048 636.128 21.1979 636.261 22.2017ZM647.491 22.2017L644.721 22.3722C644.674 22.1354 644.572 21.9223 644.416 21.733C644.26 21.5388 644.054 21.3849 643.798 21.2713C643.547 21.1529 643.246 21.0938 642.896 21.0938C642.427 21.0938 642.032 21.1932 641.71 21.392C641.388 21.5862 641.227 21.8466 641.227 22.1733C641.227 22.4337 641.331 22.6539 641.539 22.8338C641.748 23.0137 642.105 23.1581 642.612 23.267L644.586 23.6648C645.647 23.8826 646.438 24.233 646.958 24.7159C647.479 25.1989 647.74 25.8333 647.74 26.6193C647.74 27.3343 647.529 27.9616 647.108 28.5014C646.691 29.0412 646.118 29.4626 645.389 29.7656C644.664 30.0639 643.829 30.2131 642.882 30.2131C641.438 30.2131 640.287 29.9124 639.43 29.3111C638.578 28.705 638.078 27.8812 637.931 26.8395L640.907 26.6832C640.997 27.1236 641.215 27.4598 641.561 27.6918C641.906 27.919 642.349 28.0327 642.889 28.0327C643.419 28.0327 643.845 27.9309 644.167 27.7273C644.494 27.5189 644.66 27.2514 644.664 26.9247C644.66 26.6501 644.544 26.4252 644.316 26.25C644.089 26.0701 643.739 25.9328 643.265 25.8381L641.376 25.4616C640.311 25.2486 639.518 24.8793 638.997 24.3537C638.481 23.8281 638.223 23.1581 638.223 22.3438C638.223 21.643 638.412 21.0393 638.791 20.5327C639.174 20.026 639.712 19.6354 640.403 19.3608C641.099 19.0862 641.913 18.9489 642.846 18.9489C644.224 18.9489 645.308 19.2401 646.099 19.8224C646.895 20.4048 647.359 21.1979 647.491 22.2017Z" fill="#6C63FF"/>
</g>
</g>
<defs>
<filter id="filter0_d_1_2" x="602.009" y="207.256" width="50.2692" height="22.9432" filterUnits="userSpaceOnUse" color-interpolation-filters="sRGB">
<feFlood flood-opacity="0" result="BackgroundImageFix"/>
<feColorMatrix in="SourceAlpha" type="matrix" values="0 0 0 0 0 0 0 0 0 0 0 0 0 0 0 0 0 0 127 0" result="hardAlpha"/>
<feOffset dy="4"/>
<feGaussianBlur stdDeviation="2"/>
<feComposite in2="hardAlpha" operator="out"/>
<feColorMatrix type="matrix" values="0 0 0 0 0 0 0 0 0 0 0 0 0 0 0 0 0 0 0.25 0"/>
<feBlend mode="normal" in2="BackgroundImageFix" result="effect1_dropShadow_1_2"/>
<feBlend mode="normal" in="SourceGraphic" in2="effect1_dropShadow_1_2" result="shape"/>
</filter>
<filter id="filter1_d_1_2" x="561.795" y="15.2557" width="89.9442" height="22.9574" filterUnits="userSpaceOnUse" color-interpolation-filters="sRGB">
<feFlood flood-opacity="0" result="BackgroundImageFix"/>
<feColorMatrix in="SourceAlpha" type="matrix" values="0 0 0 0 0 0 0 0 0 0 0 0 0 0 0 0 0 0 127 0" result="hardAlpha"/>
<feOffset dy="4"/>
<feGaussianBlur stdDeviation="2"/>
<feComposite in2="hardAlpha" operator="out"/>
<feColorMatrix type="matrix" values="0 0 0 0 0 0 0 0 0 0 0 0 0 0 0 0 0 0 0.25 0"/>
<feBlend mode="normal" in2="BackgroundImageFix" result="effect1_dropShadow_1_2"/>
<feBlend mode="normal" in="SourceGraphic" in2="effect1_dropShadow_1_2" result="shape"/>
</filter>
<clipPath id="clip0_1_2">
<rect width="653.852" height="247.587" fill="white"/>
</clipPath>
</defs>
</svg>
